<svg width="40" height="30" viewBox="0 0 40 30" fill="none" xmlns="http://www.w3.org/2000/svg">
<path fill-rule="evenodd" clip-rule="evenodd" d="M27.5263 2.72727H38.2821L39.7 4.09091V28.6364L38.2821 30H1.41786L0 28.6364V4.09091L1.41786 2.72727H12.1737L14.5926 0.398182L15.5964 0H24.1036L25.1074 0.398182L27.5263 2.72727ZM2.83571 27.2727H36.8643V5.45455H26.9393L25.9354 5.05636L23.5166 2.72727H16.1834L13.7646 5.05636L12.7607 5.45455H2.83571V27.2727ZM7.08929 8.18182C6.71325 8.18182 6.35261 8.32549 6.08671 8.58122C5.82081 8.83695 5.67143 9.1838 5.67143 9.54545C5.67143 9.90711 5.82081 10.254 6.08671 10.5097C6.35261 10.7654 6.71325 10.9091 7.08929 10.9091C7.46532 10.9091 7.82596 10.7654 8.09186 10.5097C8.35776 10.254 8.50714 9.90711 8.50714 9.54545C8.50714 9.1838 8.35776 8.83695 8.09186 8.58122C7.82596 8.32549 7.46532 8.18182 7.08929 8.18182ZM19.85 10.9091C21.3542 10.9091 22.7967 11.4838 23.8603 12.5067C24.9239 13.5296 25.5214 14.917 25.5214 16.3636C25.5214 17.8103 24.9239 19.1977 23.8603 20.2206C22.7967 21.2435 21.3542 21.8182 19.85 21.8182C18.3458 21.8182 16.9033 21.2435 15.8397 20.2206C14.7761 19.1977 14.1786 17.8103 14.1786 16.3636C14.1786 14.917 14.7761 13.5296 15.8397 12.5067C16.9033 11.4838 18.3458 10.9091 19.85 10.9091ZM19.85 8.18182C17.5938 8.18182 15.4299 9.04383 13.8345 10.5782C12.2391 12.1126 11.3429 14.1937 11.3429 16.3636C11.3429 18.5336 12.2391 20.6147 13.8345 22.1491C15.4299 23.6834 17.5938 24.5455 19.85 24.5455C22.1062 24.5455 24.2701 23.6834 25.8655 22.1491C27.4609 20.6147 28.3571 18.5336 28.3571 16.3636C28.3571 14.1937 27.4609 12.1126 25.8655 10.5782C24.2701 9.04383 22.1062 8.18182 19.85 8.18182Z" fill="white" fill-opacity="0.5"/>
</svg>
