<svg width="144" height="144" viewBox="0 0 144 144" fill="none" xmlns="http://www.w3.org/2000/svg">
<g clip-path="url(#clip0_646_863)">
<path d="M126 54.3125H117V76.8125C117 89.237 106.924 99.3125 94.5 99.3125H54V108.312C54 118.253 62.0595 126.312 72 126.312H99L118.62 142.647C120.528 144.236 123.368 143.979 124.956 142.071C125.631 141.261 126 140.24 126 139.182V126.312C135.94 126.312 144 118.253 144 108.312V72.3125C144 62.372 135.94 54.3125 126 54.3125Z" fill="#DCDCDC"/>
<path d="M90 0.3125H18C8.0595 0.3125 0 8.372 0 18.3125V72.3125C0 82.253 8.0595 90.3125 18 90.3125V107.548C18 110.032 20.016 112.048 22.5 112.048C23.571 112.048 24.6105 111.665 25.425 110.967L49.5 90.3125H90C99.9405 90.3125 108 82.253 108 72.3125V18.3125C108 8.372 99.9405 0.3125 90 0.3125ZM33.345 51.6575C32.949 52.094 32.4945 52.472 31.995 52.7825C31.509 53.111 31.0005 53.399 30.465 53.6375C29.907 53.8445 29.3355 54.011 28.755 54.1325C28.179 54.2585 27.5895 54.317 27 54.3125C22.0275 54.3125 18 50.285 18 45.3125C17.9055 40.3445 21.8565 36.236 26.8245 36.1415C27.4725 36.128 28.1205 36.1865 28.755 36.3125C29.3355 36.434 29.907 36.6005 30.465 36.8075C31.0095 37.0325 31.5225 37.316 31.995 37.6625C32.4855 37.973 32.9355 38.333 33.345 38.7425C35.091 40.4795 36.0495 42.851 36 45.3125C35.991 47.6975 35.037 49.979 33.345 51.6575ZM60.345 51.6575C58.6665 53.3495 56.385 54.3035 54 54.3125C53.415 54.38 52.83 54.38 52.245 54.3125C51.6645 54.191 51.093 54.0245 50.535 53.8175C49.9995 53.579 49.491 53.291 49.005 52.9625C48.501 52.6385 48.033 52.265 47.61 51.8375C45.891 50.105 44.9505 47.7515 45 45.3125C44.9325 44.7275 44.9325 44.1425 45 43.5575C45.1215 42.977 45.288 42.4055 45.495 41.8475C45.72 41.303 46.0035 40.79 46.35 40.3175C46.6695 39.8225 47.034 39.3545 47.43 38.9225C47.862 38.5265 48.33 38.162 48.825 37.8425C49.2975 37.496 49.8105 37.2125 50.355 36.9875C50.967 36.7085 51.597 36.4835 52.245 36.3125C57.1185 35.3405 61.857 38.5085 62.829 43.382C62.955 44.0165 63.0135 44.6645 63 45.3125C63 47.6885 62.064 49.97 60.39 51.6575H60.345ZM87.345 51.6575C86.949 52.094 86.4945 52.472 85.995 52.7825C85.509 53.111 85.0005 53.399 84.465 53.6375C83.907 53.8445 83.3355 54.011 82.755 54.1325C82.179 54.2585 81.5895 54.317 81 54.3125C76.0275 54.3125 72 50.285 72 45.3125C71.9055 40.3445 75.8565 36.236 80.8245 36.1415C81.4725 36.128 82.1205 36.1865 82.755 36.3125C83.3355 36.434 83.907 36.6005 84.465 36.8075C85.0095 37.0325 85.5225 37.316 85.995 37.6625C86.4855 37.973 86.9355 38.333 87.345 38.7425C89.091 40.4795 90.0495 42.851 90 45.3125C89.991 47.6975 89.037 49.979 87.345 51.6575Z" fill="#DCDCDC"/>
</g>
<defs>
<clipPath id="clip0_646_863">
<rect width="144" height="144" fill="white"/>
</clipPath>
</defs>
</svg>
