<svg width="19" height="19" viewBox="0 0 19 19" fill="none" xmlns="http://www.w3.org/2000/svg">
<g clip-path="url(#clip0_15_3526)">
<path d="M18.8147 9.71894C18.8147 9.07316 18.7623 8.42389 18.6506 7.78857H9.68994V11.4469H14.8213C14.6084 12.6267 13.9242 13.6704 12.9224 14.3337V16.7074H15.9837C17.7814 15.0528 18.8147 12.6093 18.8147 9.71894Z" fill="#4285F4"/>
<path d="M9.69012 19.0006C12.2523 19.0006 14.4131 18.1594 15.9874 16.7072L12.926 14.3335C12.0743 14.913 10.9747 15.2411 9.69361 15.2411C7.2152 15.2411 5.11378 13.5691 4.35979 11.321H1.20068V13.768C2.8134 16.976 6.09817 19.0006 9.69012 19.0006Z" fill="#34A853"/>
<path d="M4.35612 11.3211C3.95818 10.1413 3.95818 8.86368 4.35612 7.68381V5.23682H1.20051C-0.146913 7.92118 -0.146913 11.0838 1.20051 13.7681L4.35612 11.3211Z" fill="#FBBC04"/>
<path d="M9.69012 3.76015C11.0445 3.7392 12.3535 4.24885 13.3344 5.18436L16.0467 2.47207C14.3293 0.859358 12.0498 -0.0272856 9.69012 0.000640194C6.09817 0.000640194 2.8134 2.02526 1.20068 5.23673L4.3563 7.68372C5.1068 5.43221 7.21171 3.76015 9.69012 3.76015Z" fill="#EA4335"/>
</g>
<defs>
<clipPath id="clip0_15_3526">
<rect width="19" height="19" fill="white"/>
</clipPath>
</defs>
</svg>
