<svg width="20" height="20" viewBox="0 0 20 20" fill="none" xmlns="http://www.w3.org/2000/svg">
<g clip-path="url(#clip0_236_108)">
<path fill-rule="evenodd" clip-rule="evenodd" d="M8.75 15.875C8.75 16.2202 8.47018 16.5 8.125 16.5H3.75C3.05964 16.5 2.5 15.9404 2.5 15.25V2.75C2.5 2.05964 3.05964 1.5 3.75 1.5H8.125C8.47018 1.5 8.75 1.77982 8.75 2.125C8.75 2.47018 8.47018 2.75 8.125 2.75H3.75V15.25H8.125C8.47018 15.25 8.75 15.5298 8.75 15.875ZM17.3172 8.55781L14.1922 5.43281C13.948 5.1886 13.552 5.1886 13.3078 5.43281C13.0636 5.67703 13.0636 6.07297 13.3078 6.31719L15.3664 8.375H8.125C7.77982 8.375 7.5 8.65482 7.5 9C7.5 9.34518 7.77982 9.625 8.125 9.625H15.3664L13.3078 11.6828C13.0636 11.927 13.0636 12.323 13.3078 12.5672C13.552 12.8114 13.948 12.8114 14.1922 12.5672L17.3172 9.44219C17.4345 9.32496 17.5005 9.16588 17.5005 9C17.5005 8.83412 17.4345 8.67504 17.3172 8.55781Z" fill="white"/>
</g>
<defs>
<clipPath id="clip0_236_108">
<rect width="20" height="20" fill="white"/>
</clipPath>
</defs>
</svg>
