<svg width="64" height="64" viewBox="0 0 64 64" fill="none" xmlns="http://www.w3.org/2000/svg">
<path fill-rule="evenodd" clip-rule="evenodd" d="M26.666 32C26.666 29.0544 29.0538 26.6666 31.9993 26.6666C34.9449 26.6666 37.3327 29.0544 37.3327 32C37.3327 34.9455 34.9449 37.3333 31.9993 37.3333C29.0538 37.3333 26.666 34.9455 26.666 32Z" fill="#D5D5D5"/>
<path fill-rule="evenodd" clip-rule="evenodd" d="M26.666 32C26.666 29.0544 29.0538 26.6666 31.9993 26.6666C34.9449 26.6666 37.3327 29.0544 37.3327 32C37.3327 34.9455 34.9449 37.3333 31.9993 37.3333C29.0538 37.3333 26.666 34.9455 26.666 32Z" fill="black" fill-opacity="0.2"/>
<path fill-rule="evenodd" clip-rule="evenodd" d="M26.666 32C26.666 29.0544 29.0538 26.6666 31.9993 26.6666C34.9449 26.6666 37.3327 29.0544 37.3327 32C37.3327 34.9455 34.9449 37.3333 31.9993 37.3333C29.0538 37.3333 26.666 34.9455 26.666 32Z" fill="black" fill-opacity="0.2"/>
<path fill-rule="evenodd" clip-rule="evenodd" d="M45.334 32C45.334 29.0544 47.7218 26.6666 50.6673 26.6666C53.6128 26.6666 56.0007 29.0544 56.0007 32C56.0007 34.9455 53.6128 37.3333 50.6673 37.3333C47.7218 37.3333 45.334 34.9455 45.334 32Z" fill="#D5D5D5"/>
<path fill-rule="evenodd" clip-rule="evenodd" d="M45.334 32C45.334 29.0544 47.7218 26.6666 50.6673 26.6666C53.6128 26.6666 56.0007 29.0544 56.0007 32C56.0007 34.9455 53.6128 37.3333 50.6673 37.3333C47.7218 37.3333 45.334 34.9455 45.334 32Z" fill="black" fill-opacity="0.2"/>
<path fill-rule="evenodd" clip-rule="evenodd" d="M45.334 32C45.334 29.0544 47.7218 26.6666 50.6673 26.6666C53.6128 26.6666 56.0007 29.0544 56.0007 32C56.0007 34.9455 53.6128 37.3333 50.6673 37.3333C47.7218 37.3333 45.334 34.9455 45.334 32Z" fill="black" fill-opacity="0.2"/>
<path fill-rule="evenodd" clip-rule="evenodd" d="M8 32C8 29.0544 10.3878 26.6666 13.3333 26.6666C16.2789 26.6666 18.6667 29.0544 18.6667 32C18.6667 34.9455 16.2789 37.3333 13.3333 37.3333C10.3878 37.3333 8 34.9455 8 32Z" fill="#D5D5D5"/>
<path fill-rule="evenodd" clip-rule="evenodd" d="M8 32C8 29.0544 10.3878 26.6666 13.3333 26.6666C16.2789 26.6666 18.6667 29.0544 18.6667 32C18.6667 34.9455 16.2789 37.3333 13.3333 37.3333C10.3878 37.3333 8 34.9455 8 32Z" fill="black" fill-opacity="0.2"/>
<path fill-rule="evenodd" clip-rule="evenodd" d="M8 32C8 29.0544 10.3878 26.6666 13.3333 26.6666C16.2789 26.6666 18.6667 29.0544 18.6667 32C18.6667 34.9455 16.2789 37.3333 13.3333 37.3333C10.3878 37.3333 8 34.9455 8 32Z" fill="black" fill-opacity="0.2"/>
</svg>
