<svg width="222" height="191" viewBox="0 0 222 191" fill="none" xmlns="http://www.w3.org/2000/svg">
<path d="M21.2305 24.3395C21.2305 21.0258 23.9168 18.3395 27.2305 18.3395H178.718C182.032 18.3395 184.718 21.0258 184.718 24.3395V156.753C184.718 160.067 182.032 162.753 178.718 162.753H27.2305C23.9168 162.753 21.2305 160.067 21.2305 156.753V24.3395Z" fill="#121417" fill-opacity="0.0666667" stroke="#F1F1F1" stroke-width="2" stroke-linejoin="round"/>
<path d="M48.4746 51.5857C48.4746 48.272 51.1609 45.5857 54.4746 45.5857H205.962C209.276 45.5857 211.962 48.272 211.962 51.5857V184C211.962 187.313 209.276 190 205.962 190H54.4746C51.1609 190 48.4746 187.313 48.4746 184V51.5857Z" fill="#121417" fill-opacity="0.0666667" stroke="#F1F1F1" stroke-width="2" stroke-linejoin="round"/>
<mask id="path-3-inside-1_789_1636" fill="white">
<path fill-rule="evenodd" clip-rule="evenodd" d="M172.169 107.686C172.169 116.402 165.103 123.467 156.388 123.467C147.673 123.467 140.607 116.402 140.607 107.686C140.607 98.971 147.673 91.9058 156.388 91.9058C165.103 91.9058 172.169 98.971 172.169 107.686ZM142.376 131.845C131.33 131.845 122.377 140.8 122.377 151.845V152.147C122.377 155.46 125.063 158.147 128.377 158.147H184.76C188.073 158.147 190.76 155.46 190.76 152.147V151.845C190.76 140.8 181.806 131.845 170.761 131.845H156.568H142.376Z"/>
</mask>
<path d="M156.388 125.467C166.208 125.467 174.169 117.506 174.169 107.686H170.169C170.169 115.297 163.999 121.467 156.388 121.467V125.467ZM138.607 107.686C138.607 117.506 146.568 125.467 156.388 125.467V121.467C148.777 121.467 142.607 115.297 142.607 107.686H138.607ZM156.388 89.9058C146.568 89.9058 138.607 97.8664 138.607 107.686H142.607C142.607 100.076 148.777 93.9058 156.388 93.9058V89.9058ZM174.169 107.686C174.169 97.8664 166.208 89.9058 156.388 89.9058V93.9058C163.999 93.9058 170.169 100.076 170.169 107.686H174.169ZM124.377 151.845C124.377 141.904 132.435 133.845 142.376 133.845V129.845C130.226 129.845 120.377 139.695 120.377 151.845H124.377ZM124.377 152.147V151.845H120.377V152.147H124.377ZM128.377 156.147C126.168 156.147 124.377 154.356 124.377 152.147H120.377C120.377 156.565 123.959 160.147 128.377 160.147V156.147ZM184.76 156.147H128.377V160.147H184.76V156.147ZM188.76 152.147C188.76 154.356 186.969 156.147 184.76 156.147V160.147C189.178 160.147 192.76 156.565 192.76 152.147H188.76ZM188.76 151.845V152.147H192.76V151.845H188.76ZM170.761 133.845C180.702 133.845 188.76 141.904 188.76 151.845H192.76C192.76 139.695 182.911 129.845 170.761 129.845V133.845ZM156.568 133.845H170.761V129.845H156.568V133.845ZM142.376 133.845H156.568V129.845H142.376V133.845Z" fill="#F1F1F1" mask="url(#path-3-inside-1_789_1636)"/>
<path fill-rule="evenodd" clip-rule="evenodd" d="M134.098 95.6753C134.098 106.788 125.089 115.797 113.977 115.797C102.864 115.797 93.8555 106.788 93.8555 95.6753C93.8555 84.5626 102.864 75.554 113.977 75.554C125.089 75.554 134.098 84.5626 134.098 95.6753ZM90.5963 126.486C79.5506 126.486 70.5996 135.441 70.5996 146.486V154.022C70.5996 157.335 73.2859 160.022 76.5996 160.022H151.792C155.106 160.022 157.792 157.335 157.792 154.022V146.486C157.792 135.441 148.841 126.486 137.795 126.486H114.196H90.5963Z" fill="#F1F1F1"/>
<path d="M14.3938 189.624C11.7849 189.624 9.66992 187.509 9.66992 184.9V184.9C9.66992 182.292 11.7849 180.177 14.3938 180.177L30.0567 180.177C32.6656 180.177 34.7805 182.292 34.7805 184.9V184.9C34.7805 187.509 32.6656 189.624 30.0567 189.624L14.3938 189.624Z" stroke="#F1F1F1" stroke-width="2" stroke-linejoin="round"/>
<path d="M216.04 14.6819C218.649 14.6819 220.764 16.7968 220.764 19.4057V19.4057C220.764 22.0146 218.649 24.1296 216.04 24.1296L200.377 24.1296C197.768 24.1296 195.653 22.0146 195.653 19.4057V19.4057C195.653 16.7968 197.768 14.6819 200.377 14.6819L216.04 14.6819Z" stroke="#F1F1F1" stroke-width="2" stroke-linejoin="round"/>
<circle cx="38.5691" cy="38.5691" r="37.5691" fill="#121417" fill-opacity="0.0666667" stroke="#F1F1F1" stroke-width="2"/>
<path d="M34.2344 19.7846C34.2344 17.3905 36.1752 15.4497 38.5693 15.4497V15.4497C40.9634 15.4497 42.9042 17.3905 42.9042 19.7846V37.1242C42.9042 39.5183 40.9634 41.4591 38.5693 41.4591V41.4591C36.1752 41.4591 34.2344 39.5183 34.2344 37.1242V19.7846Z" stroke="#F1F1F1" stroke-width="2" stroke-linejoin="round"/>
<path d="M34.2344 57.3536C34.2344 59.7477 36.1752 61.6885 38.5693 61.6885V61.6885C40.9634 61.6885 42.9042 59.7477 42.9042 57.3536V57.3536C42.9042 54.9595 40.9634 53.0187 38.5693 53.0187V53.0187C36.1752 53.0187 34.2344 54.9595 34.2344 57.3536V57.3536Z" stroke="#F1F1F1" stroke-width="2" stroke-linejoin="round"/>
</svg>
