<svg width="38" height="38" viewBox="0 0 38 38" fill="none" xmlns="http://www.w3.org/2000/svg">
<path d="M36.5153 1.73298C35.5983 0.791779 34.2411 0.441134 32.9755 0.810234L3.46512 9.39181C2.1299 9.76276 1.18352 10.8276 0.928578 12.1804C0.668138 13.5571 1.57784 15.3048 2.76633 16.0356L11.9936 21.7068C12.94 22.2882 14.1615 22.1424 14.9446 21.3525L25.5108 10.7206C26.0427 10.1669 26.9231 10.1669 27.4549 10.7206C27.9868 11.2558 27.9868 12.1231 27.4549 12.6768L16.8704 23.3106C16.0854 24.0986 15.9387 25.3259 16.5165 26.2781L22.1544 35.5979C22.8147 36.7052 23.9518 37.3327 25.199 37.3327C25.3457 37.3327 25.5108 37.3327 25.6575 37.3142C27.0881 37.1297 28.2253 36.1516 28.6471 34.7674L37.3957 5.2948C37.7808 4.03986 37.4324 2.67419 36.5153 1.73298Z" fill="white"/>
</svg>
