<svg width="24" height="25" viewBox="0 0 24 25" fill="none" xmlns="http://www.w3.org/2000/svg">
<path fill-rule="evenodd" clip-rule="evenodd" d="M12 3.5C7.02944 3.5 3 7.52944 3 12.5C3 17.4706 7.02944 21.5 12 21.5C16.9706 21.5 21 17.4706 21 12.5C21 7.52944 16.9706 3.5 12 3.5ZM1 12.5C1 6.42487 5.92487 1.5 12 1.5C18.0751 1.5 23 6.42487 23 12.5C23 18.5751 18.0751 23.5 12 23.5C5.92487 23.5 1 18.5751 1 12.5Z" fill="#363B4B"/>
<path fill-rule="evenodd" clip-rule="evenodd" d="M4.22258 4.72295C4.6131 4.33242 5.24627 4.33242 5.63679 4.72295L19.7768 18.8629C20.1673 19.2535 20.1673 19.8866 19.7768 20.2772C19.3863 20.6677 18.7531 20.6677 18.3626 20.2772L4.22258 6.13716C3.83206 5.74664 3.83206 5.11347 4.22258 4.72295Z" fill="#363B4B"/>
</svg>
