<svg width="14" height="14" viewBox="0 0 14 14" fill="none" xmlns="http://www.w3.org/2000/svg">
<path fill-rule="evenodd" clip-rule="evenodd" d="M11.4542 13.9999C10.4959 13.9999 9.66122 12.5434 9.22698 10.3915C8.79277 12.5434 7.9581 13.9999 6.99974 13.9999C6.04139 13.9999 5.20672 12.5434 4.77251 10.3915C4.33827 12.5434 3.5036 13.9999 2.54524 13.9999C1.13945 13.9999 -0.000170855 10.8659 -0.000170855 7C-0.000170855 3.13405 1.13945 8.54899e-05 2.54524 8.54899e-05C3.5036 8.54899e-05 4.33827 1.45657 4.77251 3.60854C5.20672 1.45657 6.04139 8.54899e-05 6.99974 8.54899e-05C7.9581 8.54899e-05 8.79277 1.45657 9.22698 3.60854C9.66122 1.45657 10.4959 8.54899e-05 11.4542 8.54899e-05C12.86 8.54899e-05 13.9997 3.13405 13.9997 7C13.9997 10.8659 12.86 13.9999 11.4542 13.9999Z" fill="white"/>
</svg>
